HIERARCHY
ROOT hip
{
  OFFSET 0 0 0
  CHANNELS 6 Xposition Yposition Zposition Zrotation Yrotation Xrotation
  JOINT abdomen
  {
    OFFSET 0 20.6881 -0.73152
    CHANNELS 3 Zrotation Xrotation Yrotation
    JOINT chest
    {
      OFFSET 0 11.7043 -0.48768
      CHANNELS 3 Zrotation Xrotation Yrotation
      JOINT neck
      {
        OFFSET 0 22.1894 -2.19456
        CHANNELS 3 Zrotation Xrotation Yrotation
        JOINT head
        {
          OFFSET -0.24384 7.07133 1.2192
          CHANNELS 3 Zrotation Xrotation Yrotation
          JOINT leftEye
          {
            OFFSET 4.14528 8.04674 8.04672
            CHANNELS 3 Zrotation Xrotation Yrotation
            End Site
            {
              OFFSET 1 0 0
            }
          }
          JOINT rightEye
          {
            OFFSET -3.6576 8.04674 8.04672
            CHANNELS 3 Zrotation Xrotation Yrotation
            End Site
            {
              OFFSET 1 0 0
            }
          }
        }
      }
      JOINT rCollar
      {
        OFFSET -2.68224 19.2634 -4.8768
        CHANNELS 3 Zrotation Xrotation Yrotation
        JOINT rShldr
        {
          OFFSET -8.77824 -1.95073 1.46304
          CHANNELS 3 Zrotation Xrotation Yrotation
          JOINT rForeArm
          {
            OFFSET -28.1742 -1.7115 0.48768
            CHANNELS 3 Zrotation Xrotation Yrotation
            JOINT rHand
            {
              OFFSET -22.5879 0.773209 7.07136
              CHANNELS 3 Zrotation Xrotation Yrotation
              JOINT rThumb1
              {
                OFFSET -1.2192 -0.487915 3.41376
                CHANNELS 3 Zrotation Xrotation Yrotation
                JOINT rThumb2
                {
                  OFFSET -3.37035 -0.52449 3.41376
                  CHANNELS 3 Zrotation Xrotation Yrotation
                  End Site
                  {
                    OFFSET -1.78271 -1.18214 1.43049
                  }
                }
              }
              JOINT rIndex1
              {
                OFFSET -7.75947 0.938293 5.60832
                CHANNELS 3 Zrotation Xrotation Yrotation
                JOINT rIndex2
                {
                  OFFSET -2.54057 -0.884171 1.56538
                  CHANNELS 3 Zrotation Xrotation Yrotation
                  End Site
                  {
                    OFFSET -1.62519 -0.234802 1.16502
                  }
                }
              }
              JOINT rMid1
              {
                OFFSET -8.24714 1.18213 3.41376
                CHANNELS 3 Zrotation Xrotation Yrotation
                JOINT rMid2
                {
                  OFFSET -3.10165 -0.590103 1.0647
                  CHANNELS 3 Zrotation Xrotation Yrotation
                  End Site
                  {
                    OFFSET -2.48547 -0.328903 0.83742
                  }
                }
              }
              JOINT rRing1
              {
                OFFSET -8.82822 0.546677 1.51678
                CHANNELS 3 Zrotation Xrotation Yrotation
                JOINT rRing2
                {
                  OFFSET -2.60934 -0.819778 -0.0198488
                  CHANNELS 3 Zrotation Xrotation Yrotation
                  End Site
                  {
                    OFFSET -2.33842 -0.294052 0.168128
                  }
                }
              }
              JOINT rPinky1
              {
                OFFSET -8.27202 -0.0477905 -0.4584
                CHANNELS 3 Zrotation Xrotation Yrotation
                JOINT rPinky2
                {
                  OFFSET -1.82734 -0.647385 -0.700984
                  CHANNELS 3 Zrotation Xrotation Yrotation
                  End Site
                  {
                    OFFSET -1.69225 -0.51767 -0.607171
                  }
                }
              }
            }
          }
        }
      }
      JOINT lCollar
      {
        OFFSET 2.68224 19.2634 -4.8768
        CHANNELS 3 Zrotation Xrotation Yrotation
        JOINT lShldr
        {
          OFFSET 8.77824 -1.95073 1.46304
          CHANNELS 3 Zrotation Xrotation Yrotation
          JOINT lForeArm
          {
            OFFSET 28.1742 -1.7115 0.48768
            CHANNELS 3 Zrotation Xrotation Yrotation
            JOINT lHand
            {
              OFFSET 22.5879 0.773209 7.07136
              CHANNELS 3 Zrotation Xrotation Yrotation
              JOINT lThumb1
              {
                OFFSET 1.2192 -0.487915 3.41376
                CHANNELS 3 Zrotation Xrotation Yrotation
                JOINT lThumb2
                {
                  OFFSET 3.37035 -0.52449 3.41376
                  CHANNELS 3 Zrotation Xrotation Yrotation
                  End Site
                  {
                    OFFSET 1.78271 -1.18214 1.43049
                  }
                }
              }
              JOINT lIndex1
              {
                OFFSET 7.75947 0.938293 5.60832
                CHANNELS 3 Zrotation Xrotation Yrotation
                JOINT lIndex2
                {
                  OFFSET 2.54057 -0.884171 1.56538
                  CHANNELS 3 Zrotation Xrotation Yrotation
                  End Site
                  {
                    OFFSET 1.62519 -0.234802 1.16502
                  }
                }
              }
              JOINT lMid1
              {
                OFFSET 8.24714 1.18213 3.41376
                CHANNELS 3 Zrotation Xrotation Yrotation
                JOINT lMid2
                {
                  OFFSET 3.10165 -0.590103 1.0647
                  CHANNELS 3 Zrotation Xrotation Yrotation
                  End Site
                  {
                    OFFSET 2.48547 -0.328903 0.83742
                  }
                }
              }
              JOINT lRing1
              {
                OFFSET 8.82822 0.546677 1.51678
                CHANNELS 3 Zrotation Xrotation Yrotation
                JOINT lRing2
                {
                  OFFSET 2.60934 -0.819778 -0.0198488
                  CHANNELS 3 Zrotation Xrotation Yrotation
                  End Site
                  {
                    OFFSET 2.33842 -0.294052 0.168128
                  }
                }
              }
              JOINT lPinky1
              {
                OFFSET 8.27202 -0.0477905 -0.4584
                CHANNELS 3 Zrotation Xrotation Yrotation
                JOINT lPinky2
                {
                  OFFSET 1.82734 -0.647385 -0.700984
                  CHANNELS 3 Zrotation Xrotation Yrotation
                  End Site
                  {
                    OFFSET 1.69225 -0.51767 -0.607171
                  }
                }
              }
            }
          }
        }
      }
    }
  }
  JOINT rButtock
  {
    OFFSET -8.77824 4.35084 1.2192
    CHANNELS 3 Zrotation Xrotation Yrotation
    JOINT rThigh
    {
      OFFSET 0 -1.70687 -2.19456
      CHANNELS 3 Zrotation Xrotation Yrotation
      JOINT rShin
      {
        OFFSET 0 -36.8199 0.73152
        CHANNELS 3 Zrotation Xrotation Yrotation
        JOINT rFoot
        {
          OFFSET 0.73152 -45.1104 -5.12064
          CHANNELS 3 Zrotation Xrotation Yrotation
          End Site
          {
            OFFSET -1.1221 -3.69964 12.103
          }
        }
      }
    }
  }
  JOINT lButtock
  {
    OFFSET 8.77824 4.35084 1.2192
    CHANNELS 3 Zrotation Xrotation Yrotation
    JOINT lThigh
    {
      OFFSET 0 -1.70687 -2.19456
      CHANNELS 3 Zrotation Xrotation Yrotation
      JOINT lShin
      {
        OFFSET 0 -36.8199 0.73152
        CHANNELS 3 Zrotation Xrotation Yrotation
        JOINT lFoot
        {
          OFFSET -0.73152 -45.1104 -5.12064
          CHANNELS 3 Zrotation Xrotation Yrotation
          End Site
          {
            OFFSET 1.1221 -3.69964 12.103
          }
        }
      }
    }
  }
}
MOTION
Frames:	8
Frame Time:	0.03333
-47.5989 60.6252 -69.82979999999999 164.14615 -64.154877 -162.255221 -14.541411 6.80718 -87.858832 6.077532 3.521988 86.310878 -9.8361 29.766791 -94.032939 36.272091 8.541609 66.121864 1.258059 -0.594363 -50.574888 6.622754 -2.711111 -44.487511 -152.86926 29.994016 155.653153 119.889571 -28.900678 137.92141 64.665827 -29.313113 87.177758 -74.138659 76.972416 52.718343 -171.404623 -9.355167 91.005415 -49.576796 -11.794415 -0.133262 7.445153 -17.910306 5.328201 97.722328 -50.807251 56.631298 40.707435 -56.043589 21.294033 -166.891865 26.665951 145.627174 -155.477 -3.149924 166.716124 5.431235 0.099551 16.12556 -22.314869 -17.954167 -26.516643 14.517982 -27.304468 -11.219397 159.008512 13.133517 -161.308056 -122.522886 -7.659475 -165.490933 96.504336 31.188472 -71.824119 -48.801526 -59.684147 -34.316547 10.570865 3.954973 -12.541342 35.402572 35.210262 -33.189838 153.087969 -19.991729 -117.191368 162.160501 -14.601235 -101.290154 144.953381 20.806263 -142.5701 156.033025 45.156751 -156.357038 136.176265 -61.743076 156.75883 -22.304572 1.826321 -8.807194 -2.791611 3.595386 4.967211 27.072403 -44.457024 9.548164 72.247982 41.488573 36.30686 -143.944232 -7.292634 0.0 67.609731 34.196618 -38.370103 -74.065502 13.560712 12.242537 -7.797483 10.521226 11.397589 17.8877 -9.587763 -74.012652 -47.909193 3.012519 -3.73512 -176.183513 2.667638 -118.202171
-47.0521 60.642700000000005 -70.6575 165.35089 -64.135078 -163.168035 -13.805795 5.559011 -111.51513 3.146684 4.74946 111.67924 -9.231732 28.847177 -81.121237 36.532573 -0.018554 52.846784 4.533302 -2.320362 -54.19319 11.004272 -4.55254 -44.847108 -2.12213 -15.244817 -8.473862 -113.762008 6.540015 -171.656708 6.567556 15.258283 -87.439694 161.456453 -28.635912 136.86459 -9.367348 6.769977 0.684365 22.301497 -12.403699 7.856894 -41.926858 28.335919 32.315583 -172.413499 14.897305 113.178197 4.135931 -12.0903 10.225016 -161.816808 -59.318298 165.245277 -9.044945 -5.257312 14.293493 21.718971 15.993823 -22.981294 -124.743462 -20.245427 -113.227736 -135.361321 -9.772339 -111.189754 5.75079 1.959066 0.225411 145.851498 -81.787172 -129.602405 -15.520495 -72.478859 65.847342 -163.218082 -24.102628 -139.83224 170.490526 -8.264139 -81.456745 136.655943 2.685553 -64.120192 -0.992172 0.223387 -4.702053 172.865704 -42.674488 -131.542055 0.398107 27.913159 -2.727676 24.729332 16.703845 -8.552617 -1.292854 -37.420743 2.203048 -6.525099 -63.268081 -1.245051 155.312622 46.532752 143.9423 12.759924 -20.813747 28.060425 -3.074597 7.058302 4.308045 -63.89988 -60.709349 -66.86474 -39.235186 69.794056 -24.18328 112.063279 52.641136 -26.91455 69.730155 42.352308 37.004949 -62.811536 16.075935 -68.303142 -34.155257 42.380189 -96.514854 -145.229424 4.46973 -162.4898
-46.4224 60.608 -71.241 165.124683 -64.073045 -162.325464 -13.105879 6.106652 -84.788444 5.961374 1.827005 85.993962 12.42759 23.491853 66.159118 -35.278322 2.893784 -99.432743 5.767337 -2.664207 -49.559934 10.487752 -3.714769 -38.920186 -9.977498 44.299878 6.932587 -145.259809 -30.715714 131.289976 70.518255 -7.594525 -37.138861 -176.982561 36.712047 142.900417 -164.970479 1.243303 87.991943 160.06307 -31.3506 109.59464 6.460668 -14.910186 4.624971 -164.312369 -8.74627 85.583713 4.738036 -12.598598 9.413003 -168.510155 -47.124932 160.807876 -157.344009 -4.253815 166.115116 21.314291 -61.729444 13.674134 8.274705 13.645201 -5.94922 -60.985649 77.881274 105.548525 11.694594 25.457154 -9.066781 -68.324694 17.284269 -34.00951 0.847216 -14.022012 -41.798791 3.620417 21.97553 1.727237 5.743079 6.210243 -7.632409 79.585054 26.781206 -68.636293 -150.918861 -67.883205 -90.85684 165.470016 -0.300201 -96.758293 -4.023037 13.538787 1.389867 -141.914025 -56.578283 -120.448047 76.566665 -81.159349 93.071564 -10.744927 0.219252 -8.241795 74.36432 -51.066552 74.889576 -9.37314 16.679056 -16.462876 -14.356396 4.452151 -7.363259 -35.537616 -69.433488 95.823598 75.927365 -39.071581 173.26963 7.212185 30.294221 96.018246 -2.27424 9.365784 3.258031 12.190625 -5.058179 -0.0 -1.639202 50.625899 120.571102 -60.133126 49.657314 -53.049181
-45.804 60.501599999999996 -71.672 165.098439 -64.000492 -161.995628 -14.925075 8.206853 1.549619 4.034271 -8.042584 0.285412 -4.852052 22.704514 -33.973129 19.68491 -25.26579 5.386516 4.183499 -1.685622 -43.876356 11.973286 -4.037775 -37.159416 -6.422237 36.424398 2.862205 -123.669961 -12.386799 142.06142 7.300313 -36.48764 -83.409267 158.675535 -31.483033 134.927487 -167.614142 -1.098413 87.468571 -87.457229 16.460839 20.87325 -23.390755 19.752912 20.557991 153.745849 -20.873592 94.328357 -32.424133 37.005036 29.712798 -74.372987 75.092493 76.93806 -8.248725 -76.522708 -9.337952 -1.484908 1.057379 -18.050951 16.974854 23.390487 -0.610253 -6.171274 -20.139699 5.043792 156.560198 9.97693 -155.889687 -112.247163 -44.050775 -161.279675 1.621935 -37.781618 -39.434746 4.19942 20.183986 1.467111 -1.178979 2.867437 -4.226366 132.087629 -13.879646 -107.750354 169.314535 -44.748709 -115.716384 15.953052 17.716368 -23.227058 32.325874 56.947598 -32.974517 172.077741 17.935105 -146.18632 139.390365 22.46926 -161.013444 -18.765118 10.298899 5.172447 153.734814 60.954119 152.636579 170.690262 54.906333 127.12885 23.169993 5.768563 17.682474 -87.533677 -43.851863 -87.625111 -58.490245 63.412013 154.370692 -10.209117 -61.206101 -99.293131 -0.422633 8.745455 -0.111175 10.329306 -5.384975 180.0 2.831678 -50.212453 -73.671994 -88.256729 43.275468 -20.731719
-45.2511 60.3266 -72.0189 165.149361 -64.172418 -162.049535 -12.16238 5.321665 -113.284148 3.741104 3.292361 114.344514 14.645357 31.414715 108.70566 -34.831913 29.924661 -136.984896 3.379846 -1.122233 -36.727292 13.679917 -4.326044 -34.956254 -79.510183 75.540392 81.367127 -87.416048 26.681988 91.444592 -171.399369 8.258764 -130.749557 -5.34007 32.195866 -2.91649 -166.768744 -0.019975 87.530545 148.646475 -48.015736 115.958797 -49.026002 33.651314 41.33828 0.894112 -28.736752 5.419856 0.99049 -6.575584 8.07938 2.621077 -25.622293 -19.144345 -75.856114 -85.550429 -81.109379 -162.361102 -23.73441 -166.844775 7.741647 -4.118958 -5.838565 -1.811312 56.489242 29.673471 -3.829007 -44.514265 3.95114 -82.222762 26.333735 38.089451 -1.871999 9.181188 -43.336368 6.216715 22.56851 0.771869 3.651558 8.890845 -4.120495 -37.378424 -57.950867 4.403277 43.752018 35.578876 -38.188591 16.846301 63.0877 -11.888151 0.278533 22.104235 -4.395593 9.501543 -0.986011 -4.383923 -4.120456 -45.389757 0.315103 -2.07677 34.563918 0.35697 -15.132712 43.750627 -13.957767 2.778332 7.599192 13.59245 -162.728386 74.469734 -11.529073 150.780254 1.475887 0.188926 -52.826878 69.386024 -30.59951 87.535965 78.871178 1.295889 157.534246 65.671426 16.947359 -134.719312 68.411921 40.998631 49.556861 13.414584 58.509539 -178.622397 -6.15605 93.158629
-44.767 60.1338 -72.34270000000001 165.26796 -64.661579 -162.392315 -14.028913 9.521085 -0.0 3.682329 -8.328638 1.338183 10.438423 37.485188 150.46973 -12.457049 48.131415 176.685915 4.668094 -1.162105 -27.944888 15.218247 -4.367985 -31.865092 -5.389774 36.485891 2.592885 30.928308 26.310586 43.60917 154.760791 50.37158 117.207384 166.228273 -15.33795 141.473046 3.111412 -8.010387 0.034672 25.581996 -9.917239 0.408423 -119.271285 19.471476 98.59026 -178.421487 -1.089587 129.389447 2.31279 -11.283076 6.132523 -156.369971 -67.933972 173.917138 -9.525712 -3.655535 9.446519 -6.762092 -59.79897 -41.252844 13.174623 2.065134 -1.616249 -156.253424 52.131011 -164.650449 151.649571 21.536923 -151.522237 -6.14803 -63.679073 -64.460357 62.686803 -83.481872 24.303449 4.968503 15.489789 0.636876 -60.232919 -40.782275 -13.668633 -45.048656 -76.709236 -2.227274 45.099672 36.805425 -40.470647 163.492992 -58.991446 -123.50912 162.8597 -40.017985 -146.431265 10.274506 50.248529 -13.961377 74.378382 59.968529 -92.40575 -18.505829 -0.33028 7.433089 -12.219254 26.324538 -11.211918 -28.858672 50.053379 16.616356 15.025954 0.982974 7.44807 -76.069678 -52.938947 -180.0 -76.881626 -42.270287 9.997794 154.574533 -14.771493 -98.986876 -10.197501 10.354226 -12.376333 22.412299 1.41628 -86.570391 -50.004921 -14.825899 -104.738782 147.873263 59.38964 108.763615
-44.3188 59.9956 -72.6609 165.296652 -65.32405 -162.706305 -15.919545 9.303746 60.455122 -3.629437 -8.77468 -59.870552 12.511808 34.86804 128.988277 -28.268092 40.199879 -157.329777 8.579595 -1.257475 -16.646393 16.152015 -4.064775 -28.082575 -0.183931 -13.954206 -10.252831 -49.501542 88.244021 108.652971 157.50888 73.093649 119.474535 161.97231 -25.657829 139.730022 89.778704 -51.658277 41.768193 -137.714063 -38.452622 144.0257 -55.28878 36.013633 46.772963 -142.901237 25.638012 85.6259 28.020546 -56.349826 11.348448 -32.970398 59.738247 12.467511 -152.377299 -2.127308 175.305452 -165.085842 -1.39868 169.884777 45.754612 79.375479 5.241379 -102.858225 -41.809235 -89.28205 -0.798175 -17.98878 0.524114 93.854085 -30.380842 167.086601 171.469958 3.918351 139.615314 6.390336 16.710748 -0.001245 177.537307 -24.889897 -87.391602 136.245676 5.936088 -85.754543 164.450016 -45.904519 -117.312811 72.247681 38.708698 -50.612571 -5.424945 6.333824 -0.563048 177.441771 -28.336908 -134.665132 -4.269764 -27.246345 -5.433854 -5.008008 0.652251 11.720829 12.002373 -34.930162 15.002403 166.745388 12.41377 141.404684 -7.986221 1.964411 -12.392091 -32.023146 -66.359178 -30.057978 -31.109822 80.85028 -88.905664 -35.274879 54.618937 143.82673 -82.813535 48.156137 -38.641082 88.026857 46.989572 -86.241761 -21.692199 -38.34521 63.009357 -171.364991 51.75914 -100.76247
-43.8139 60.008700000000005 -72.97829999999999 165.418317 -66.113204 -162.983126 -13.808999 11.293946 2.181108 3.778487 -9.113394 -1.45835 9.963358 23.49601 59.233516 -36.044597 -4.87036 -97.738558 13.195351 -0.129425 -1.118951 16.084891 -3.36062 -23.457757 -1.916411 22.211507 -1.655889 50.338569 11.984441 26.112298 179.254443 25.060394 96.768057 159.659506 -30.182089 139.160951 -11.188702 6.211167 -0.439098 -120.932462 -28.928569 88.760326 -21.675417 20.452391 18.589488 -2.889525 9.3423 21.849237 -164.403828 -5.455359 137.549539 76.131142 -62.351854 52.337747 -77.420734 70.55659 91.19575 -149.376776 24.749567 167.289458 50.740475 83.650186 3.341709 -158.435004 11.139416 -129.706656 -1.0724 -18.555836 1.399053 148.86903 81.032325 135.336371 52.805435 -0.55514 2.080056 -23.181093 -53.482687 -12.583598 -103.73163 -51.555442 -38.387385 57.602158 20.437387 -27.989117 100.64018 31.089584 -93.193107 168.80542 -41.661496 -107.138918 -15.310743 -24.560209 3.50405 -7.526489 2.460799 -5.600081 -0.492732 -3.493057 -11.27283 -13.081884 25.933495 10.757257 103.981689 -47.526112 106.657936 29.677622 74.955 -54.613322 -9.497098 3.064017 -15.065059 -27.646414 -67.542685 -0.0 75.791055 65.11091 144.724256 102.005097 -13.957559 -168.17975 14.733838 8.154842 -0.0 -1.376542 -0.373779 -74.8114 -49.930035 0.812007 -74.548131 -36.127158 28.670207 -164.557409
